PathFileType	4	(X/Y/Z)	C:\Users\°ÂÌØÂü\Desktop\20210112\bx_n_0_901-Unnamed.trc
DataRate	CameraRate	NumFrames	NumMarkers	Units	OrigDataRate	OrigDataStartFrame	OrigNumFrames
50.00	50.00	       9	0	mm	50.00	139	       370
Frame#	Time	
		

139	2.760	-385.84091	-84.83391	1347.16223	-468.42212	90.00861	1151.76892	-688.69238	-20.60864	1016.21936				-780.14209	275.66623	874.30084	-681.34198	-18.25807	805.69507	-678.81671	207.12610	796.46490	-768.78302	268.49359	740.11353	-790.27448	249.75740	635.25482	-753.56482	66.67693	570.53687				-716.04614	9.12817	524.94507	-777.28021	243.07378	572.32007	-721.70190	197.97794	537.54877	-805.65948	258.29767	495.34760	-725.41534	65.26484	219.34410	-647.93280	-68.02937	161.33667	-718.23083	151.48215	219.37122	-766.91486	229.53299	204.38362	-605.35181	-72.46355	156.89685	-882.59326	296.06439	144.66135	-675.64893	51.78036	161.42224	-601.03436	28.84977	167.03391	-549.46625	-22.03055	162.08093	-517.81085	-72.96118	143.22667	-589.94623	206.95677	173.43248	-652.13605	291.61093	156.86282	-614.92169	296.89090	158.48619	-552.99286	240.91171	165.11691	-528.18475	303.59134	146.30453	-156.62657	113.01084	1548.02856	-796.33337	182.49908	183.36867	-398.01700	271.40021	1345.23291	-794.61890	35.26125	174.91026	-869.14197	81.95575	1098.86731	-801.85876	-54.23644	481.52573	-762.07233	-23.79281	205.14098	-875.80023	-78.62018	141.04199	-749.38092	137.24458	571.87610	-770.52759	-74.37576	752.71948	-769.40198	-44.30936	612.04535	-770.77789	-41.01249	565.96252	-676.43048	168.38480	160.37471	-768.18195	-83.91710	870.48871	
140	2.780	-380.47577	-84.31189	1335.71338				-690.95917	-20.71473	1013.30554	-467.49280	90.52490	1142.33972	-782.58008	275.16940	874.26019	-683.83929	-18.70873	805.34137	-681.13977	206.77130	796.02869	-770.93848	269.07953	740.60474	-792.42896	249.51199	634.99542	-755.47931	65.89107	570.35126				-717.83612	8.99563	524.58588	-779.13184	242.68929	572.16937	-723.48236	197.58322	537.21906	-806.73029	257.81015	494.94760	-725.63116	65.11871	219.38063	-648.06635	-68.41910	161.23782	-718.32257	151.52892	219.28813	-766.96716	229.23334	204.38783	-605.29492	-72.67376	156.79199	-882.66113	296.07431	144.60684	-675.78510	51.55505	161.36467	-601.11658	28.70247	167.14305	-549.32947	-21.71290	162.02100	-517.97510	-72.85950	143.01108	-589.67755	206.57446	173.25201	-652.17920	291.51770	156.96675	-614.99384	296.88297	158.54567	-552.99249	241.07329	165.10178	-528.17316	303.73804	146.37025	-147.91112	112.90232	1532.98743	-796.42126	182.57983	183.17526	-392.73914	271.10355	1334.57117	-794.65076	35.05399	174.87906	-870.54138	81.61443	1100.08643	-802.76312	-54.33176	480.95557	-762.13940	-23.97446	205.32060	-875.88159	-78.69018	141.14127	-750.63568	136.87482	571.73010	-772.76709	-74.45619	752.52917	-771.45923	-44.43029	611.44781	-772.52191	-40.96558	565.68530	-676.46777	168.47853	160.37572	-770.40979	-84.14729	870.27917	
141	2.800	-375.04135	-84.68044	1324.59497				-693.41956	-21.70378	1011.34778	-466.94901	90.11000	1133.19055	-785.05762	275.47968	874.60132	-686.58948	-18.71388	805.13507	-683.27563	206.71367	796.12323	-773.01898	268.48975	740.33972	-794.13715	249.64848	634.57690	-756.69647	65.98203	570.14868				-719.07751	8.72975	525.06409	-780.51141	242.46904	571.78497	-724.54529	197.32715	537.12415	-807.95825	257.79562	494.83600	-725.50269	65.11855	219.52875	-648.06635	-68.41910	161.23782	-718.32257	151.52892	219.28813	-767.10516	229.32147	204.30226	-605.08789	-72.63715	156.99730	-882.53333	295.98224	144.53958	-675.71729	51.76202	161.60023	-601.11658	28.70247	167.14305	-549.38910	-21.80590	162.07021	-517.94177	-72.92817	143.09164	-589.59222	206.64145	173.28345	-652.05963	291.42365	157.18680	-614.96118	296.97943	158.61572	-553.03168	241.02493	165.22578	-528.08081	303.78183	146.38998	-139.32187	112.56595	1517.90466	-796.42828	182.50259	183.25787	-387.75922	271.01520	1323.71082	-794.74396	34.89811	174.93706	-871.50647	81.31514	1100.72546	-804.06396	-54.65999	481.40936	-761.83234	-23.93596	205.14247	-875.78961	-78.57214	141.09050	-751.89484	136.50529	571.90063	-775.37140	-75.16482	752.05084	-772.85730	-44.37494	611.38861	-774.12830	-41.36099	565.42908	-676.31213	168.49136	160.34583	-773.17358	-85.35478	870.55145	
142	2.820	-369.35733	-84.52468	1312.97131							-466.21350	90.07214	1124.18298	-787.15295	275.05920	874.03101	-689.58014	-18.92490	805.00403	-685.23511	206.30350	796.10590	-774.39386	268.23776	740.18451	-795.54999	249.52525	634.33789	-758.10950	65.80744	570.37335				-720.16602	8.91737	525.28247	-781.05341	242.21042	571.79639	-725.52789	196.83829	537.49799	-808.69196	257.51096	494.49304	-725.44556	65.06982	219.63104	-647.91193	-68.31200	161.08556	-718.58911	151.51184	219.37236	-766.87482	229.39458	204.44875	-605.03369	-72.88483	156.80823	-882.61700	296.04480	144.61403	-675.99158	51.47500	161.73410	-601.08618	28.59382	167.05228	-549.27783	-21.87139	161.90663	-517.75317	-72.96760	143.31578	-589.73767	206.51617	173.15825	-651.96552	291.39999	157.16972	-614.95477	296.89960	158.52272	-552.92810	241.04849	164.84854	-528.08795	304.02261	146.43359	-131.34015	112.50375	1502.63867	-796.42828	182.50259	183.25787	-382.22318	270.91608	1313.09631	-794.66309	34.98344	175.18701	-872.88293	80.95155	1101.50464	-804.92200	-54.59861	480.94189	-761.91516	-23.96244	205.21715	-875.94281	-78.74004	141.14670	-753.07306	135.96629	571.80090	-777.48389	-75.82453	751.70850	-774.40533	-44.89736	611.62585	-775.04205	-41.51989	565.66846	-676.46777	168.47853	160.37572	-776.27722	-85.11258	869.63281	
143	2.840	-364.39365	-84.42859	1301.31934							-464.94928	89.85709	1114.82776	-789.20380	274.86646	873.72723	-692.42291	-19.03079	805.17908	-687.15845	205.90805	796.02759	-776.43768	268.74042	739.73425	-796.98163	249.35692	633.95532	-759.65112	66.19498	570.52802				-721.44568	8.66089	525.30261	-782.31946	241.92918	571.60114	-726.38458	197.08481	537.17731	-809.38947	257.80319	494.62729	-725.63116	65.11871	219.38063	-647.81110	-68.11020	161.07262	-718.83441	151.41260	219.45221	-766.69965	229.61261	204.40436	-605.03015	-73.04376	156.80600	-882.55676	296.08594	144.72644	-675.85559	51.68350	161.79523	-601.09296	28.66555	167.03957	-549.09045	-21.77650	161.73053	-517.79669	-73.01600	143.27763	-589.85577	206.77161	173.16917	-651.96552	291.39999	157.16972	-614.81946	296.93469	158.53418	-552.87994	240.86700	165.14993	-528.08167	303.89258	146.37642	-123.39776	112.24677	1486.87354	-796.44098	182.65305	183.24957	-377.49460	270.15952	1301.85229	-794.66309	34.98344	175.18701	-874.19153	80.89674	1103.52234	-805.77570	-54.73365	480.82706	-761.96643	-24.02585	205.36638	-875.88751	-78.54328	141.29303	-754.42413	135.78264	571.89771	-779.58075	-76.41830	751.57916	-775.93262	-44.69250	611.33563	-776.59595	-41.25430	564.83368	-676.46777	168.47853	160.37572	-778.96082	-85.33511	869.04810	
144	2.860	-359.63727	-84.72027	1289.72083										-791.57733	274.92188	874.11310	-694.38892	-19.68641	805.23407	-689.14014	205.36328	796.18646	-777.96613	268.11935	739.21252	-798.16833	249.34438	634.05762	-760.56561	65.62225	570.28314				-722.48553	8.73766	525.15100	-783.46777	242.10852	571.71515	-727.97284	196.66562	537.41229	-810.24426	257.75601	494.59683	-725.99072	64.93861	219.68808	-647.95233	-68.22758	161.24281	-719.61224	151.75813	218.89880	-767.11346	229.24350	204.29056	-605.14117	-73.07127	156.73970	-882.46851	296.07156	144.60954	-675.77728	51.45787	161.50293	-601.20605	28.69917	166.98390	-549.09113	-21.59792	161.51265	-517.91980	-73.01032	143.17534	-589.94867	206.59659	173.02692	-651.96552	291.39999	157.16972	-614.97705	296.72626	158.79298	-553.08020	240.88980	165.26459	-528.06097	303.78870	146.32762	-115.84036	112.56563	1471.37268	-796.45905	182.63448	183.27426	-372.83701	269.75497	1290.64404	-794.49316	35.12750	175.04396	-874.74908	80.51788	1104.22766	-807.29913	-54.58609	480.47183	-761.98138	-23.83991	205.18886	-875.87097	-78.64214	141.18979	-755.70734	135.68036	571.68054	-781.03168	-76.40023	751.40802	-777.33490	-45.03760	611.39795	-777.91449	-41.50623	565.07593	-676.46777	168.47853	160.37572	-781.45331	-85.79301	868.77710	
145	2.880	-355.17627	-84.84621	1277.91492										-793.41089	274.76517	873.87195	-696.17297	-19.59980	804.87805	-691.41333	205.45889	796.43018	-779.56061	268.37930	739.50018	-799.54120	248.82217	633.68597	-761.78925	66.00948	570.09735				-723.62848	8.75421	525.22040	-784.72632	241.58937	571.78424	-728.73944	196.50497	537.45282	-811.11157	257.45889	494.32669	-725.63116	65.11871	219.38063	-647.80438	-68.01548	161.22519	-718.91235	151.21844	219.35161	-766.86462	229.36850	204.49063	-605.01257	-73.01151	156.35719	-882.39093	296.02524	144.67892	-675.70209	51.90396	161.88704	-601.12903	28.85523	167.08904	-548.85095	-21.55243	161.35579	-517.55017	-72.98412	143.28015	-590.02875	206.59799	172.96136	-651.92279	291.25763	157.36250	-614.95587	296.65277	158.87550	-553.12463	241.00102	164.96356	-528.06647	303.94577	146.47751	-109.16205	112.52560	1455.14563	-796.44586	182.54819	183.30095	-368.58792	269.82813	1279.97375	-794.49060	35.17842	174.99866	-875.28662	80.31038	1105.09204	-807.92773	-54.56039	480.01379	-761.97363	-23.83573	205.13554	-875.95935	-78.64118	141.24994	-756.90924	135.74057	571.68073	-782.98767	-76.81239	751.18884	-778.83966	-44.59613	610.85498	-779.48804	-41.67933	565.15936	-676.18207	168.31111	160.38121	-783.41559	-86.33195	868.75214	
146	2.900	-350.70230	-85.18588	1266.69751										-795.62878	275.10199	873.62433	-698.50751	-19.81133	804.52130	-693.53400	204.96539	796.19440	-781.25751	268.25281	739.22101	-800.56482	249.35599	633.46637	-763.28943	65.50257	569.91211				-724.94965	8.84341	524.97583	-785.19257	241.31926	571.46796	-729.40063	196.25336	537.77118	-811.63513	257.39694	493.99338	-725.71149	65.07867	219.62280	-647.83655	-68.40271	161.15689	-719.76904	151.73262	218.91437	-766.84808	229.22438	204.51762	-605.12543	-73.08926	156.39795	-882.56787	296.03094	144.71635	-675.45215	51.64315	161.98428	-601.08325	28.71820	166.99606	-548.81604	-21.60275	161.33727	-517.73724	-73.03930	143.15677	-590.01910	206.50598	173.04637	-651.72729	291.17056	157.38025	-614.87616	296.65009	158.82492	-553.01135	240.83727	164.95029	-528.16699	303.87247	146.22247	-102.47282	112.57024	1439.22766	-796.42828	182.50259	183.25787	-364.38046	269.35104	1269.01233	-794.48102	35.09787	175.09598	-876.04395	80.30867	1105.71777	-809.10913	-54.72105	479.81802	-761.92334	-23.88882	205.09460	-875.94281	-78.74004	141.14670	-757.93799	135.28012	572.08630	-786.19073	-76.22540	750.23187	-780.51904	-44.80589	610.64111	-780.45319	-41.58958	564.82941	-676.33942	168.41245	160.51405	-785.67041	-86.09520	868.39575	
147	2.920	-346.50720	-85.16941	1254.69421										-797.82990	275.31345	873.30493	-700.59253	-19.91846	804.15448	-695.71759	204.72090	795.95251	-782.81055	268.46259	739.52161	-801.82819	249.40639	633.01270	-764.56055	65.63284	569.63562				-726.28046	8.68477	525.18665	-786.00769	241.63319	571.53046	-730.31604	196.10744	537.68372	-812.36719	257.42465	493.98529	-726.15338	64.68367	219.53162	-647.84131	-68.30715	161.14812	-718.95532	151.30528	219.34889	-766.84644	229.29872	204.44662	-605.09076	-73.10940	156.28862	-882.46967	296.17999	144.73534	-675.89624	51.52280	161.45009	-601.30707	28.68008	167.03558	-548.71771	-21.63815	161.29509	-517.74109	-73.21075	143.23485	-589.99335	206.54370	172.87460	-651.49542	291.11627	157.51112	-614.88300	296.59695	158.89958	-552.98279	240.83179	164.85394	-528.11853	303.90390	146.57425	-95.48729	112.33029	1423.91028	-796.32635	182.57632	183.28606	-360.06058	268.91928	1257.65039	-794.45123	35.16493	175.03987	-876.45496	80.58093	1106.37903	-810.30219	-54.75882	479.72391	-762.07544	-23.93984	204.89439	-875.96130	-78.84709	141.39201	-759.06396	134.90594	572.34003	-788.83307	-76.47861	749.55273	-781.76050	-44.86435	610.57776	-782.18341	-41.74294	564.69800	-676.33942	168.41245	160.51405	-788.25562	-86.53805	868.51923	
